<?xml version="1.0" encoding="UTF-8" standalone="no"?>
<!-- Generator: Adobe Illustrator 16.0.4, SVG Export Plug-In . SVG Version: 6.00 Build 0)  -->
<svg xmlns:dc="http://purl.org/dc/elements/1.1/" xmlns:cc="http://creativecommons.org/ns#" xmlns:rdf="http://www.w3.org/1999/02/22-rdf-syntax-ns#" xmlns:svg="http://www.w3.org/2000/svg" xmlns="http://www.w3.org/2000/svg" xmlns:sodipodi="http://sodipodi.sourceforge.net/DTD/sodipodi-0.dtd" xmlns:inkscape="http://www.inkscape.org/namespaces/inkscape" version="1.1" id="Capa_1" x="0px" y="0px" width="540px" height="92px" viewBox="0 0 540 92" enable-background="new 0 0 540 92" xml:space="preserve"><metadata id="metadata63"/><defs id="defs61"/><text transform="matrix(1.0635 0 0 1 81.0044 40.8232)" fill="#3E4543" font-family="'TimesNewRomanPSMT'" font-size="31.787" id="text3" style="fill:#ffffff;fill-opacity:1;">U</text>
<text transform="matrix(1.0635 0 0 1 105.417 40.8232)" fill="#3E4543" font-family="'TimesNewRomanPSMT'" font-size="25.429" id="text5" style="fill:#ffffff;fill-opacity:1;">NIVERSIDAD DE </text>
<text transform="matrix(1.0635 0 0 1 320.248 40.8232)" fill="#3E4543" font-family="'TimesNewRomanPSMT'" font-size="31.787" id="text7" style="fill:#ffffff;fill-opacity:1;">G</text>
<text transform="matrix(1.0635 0 0 1 344.6611 40.8232)" fill="#3E4543" font-family="'TimesNewRomanPSMT'" font-size="25.429" id="text9" style="fill:#ffffff;fill-opacity:1;">UADALAJARA</text>
<polygon fill="#3E4543" points="526.358,53.322 516.907,53.322 92.069,53.322 82.624,53.322 82.624,54.177 304.491,54.177   526.358,54.177 " id="polygon11" style="fill:#ffffff;fill-opacity:1"/><text transform="matrix(1 0 0 1 188.9551 76.3027)" fill="#3E4543" font-family="'TimesNewRomanPSMT'" font-size="16.876" id="text13" style="fill:#ffffff;fill-opacity:1;">R</text>
<text transform="matrix(1 0 0 1 201.875 76.3027)" fill="#3E4543" font-family="'TimesNewRomanPSMT'" font-size="16.876" id="text15" style="fill:#ffffff;fill-opacity:1;">e</text>
<text transform="matrix(1 0 0 1 211.0278 76.3027)" fill="#3E4543" font-family="'TimesNewRomanPSMT'" font-size="16.876" id="text17" style="fill:#ffffff;fill-opacity:1;">d U</text>
<text transform="matrix(1 0 0 1 237.5352 76.3027)" fill="#3E4543" font-family="'TimesNewRomanPSMT'" font-size="16.876" id="text19" style="fill:#ffffff;fill-opacity:1;">n</text>
<text transform="matrix(1 0 0 1 247.6357 76.3027)" fill="#3E4543" font-family="'TimesNewRomanPSMT'" font-size="16.876" id="text21" style="fill:#ffffff;fill-opacity:1;">i</text>
<text transform="matrix(1 0 0 1 253.9878 76.3027)" fill="#3E4543" font-family="'TimesNewRomanPSMT'" font-size="16.876" id="text23" style="fill:#ffffff;fill-opacity:1;">v</text>
<text transform="matrix(1 0 0 1 264.0889 76.3027)" fill="#3E4543" font-family="'TimesNewRomanPSMT'" font-size="16.876" id="text25" style="fill:#ffffff;fill-opacity:1;">e</text>
<text transform="matrix(1 0 0 1 273.2422 76.3027)" fill="#3E4543" font-family="'TimesNewRomanPSMT'" font-size="16.876" id="text27" style="fill:#ffffff;fill-opacity:1;">r</text>
<text transform="matrix(1 0 0 1 280.5254 76.3027)" fill="#3E4543" font-family="'TimesNewRomanPSMT'" font-size="16.876" id="text29" style="fill:#ffffff;fill-opacity:1;">s</text>
<text transform="matrix(1 0 0 1 288.7559 76.3027)" fill="#3E4543" font-family="'TimesNewRomanPSMT'" font-size="16.876" id="text31" style="fill:#ffffff;fill-opacity:1;">i</text>
<text transform="matrix(1 0 0 1 295.1074 76.3027)" fill="#3E4543" font-family="'TimesNewRomanPSMT'" font-size="16.876" id="text33" style="fill:#ffffff;fill-opacity:1;">t</text>
<text transform="matrix(1 0 0 1 301.459 76.3027)" fill="#3E4543" font-family="'TimesNewRomanPSMT'" font-size="16.876" id="text35" style="fill:#ffffff;fill-opacity:1;">a</text>
<text transform="matrix(1 0 0 1 310.6123 76.3027)" fill="#3E4543" font-family="'TimesNewRomanPSMT'" font-size="16.876" id="text37" style="fill:#ffffff;fill-opacity:1;">r</text>
<text transform="matrix(1 0 0 1 317.8945 76.3027)" fill="#3E4543" font-family="'TimesNewRomanPSMT'" font-size="16.876" id="text39" style="fill:#ffffff;fill-opacity:1;">i</text>
<text transform="matrix(1 0 0 1 324.2461 76.3027)" fill="#3E4543" font-family="'TimesNewRomanPSMT'" font-size="16.876" id="text41" style="fill:#ffffff;fill-opacity:1;">a d</text>
<text transform="matrix(1 0 0 1 346.0566 76.3027)" fill="#3E4543" font-family="'TimesNewRomanPSMT'" font-size="16.876" id="text43" style="fill:#ffffff;fill-opacity:1;">e J</text>
<text transform="matrix(1 0 0 1 365.9961 76.3027)" fill="#3E4543" font-family="'TimesNewRomanPSMT'" font-size="16.876" id="text45" style="fill:#ffffff;fill-opacity:1;">a</text>
<text transform="matrix(1 0 0 1 375.1494 76.3027)" fill="#3E4543" font-family="'TimesNewRomanPSMT'" font-size="16.876" id="text47" style="fill:#ffffff;fill-opacity:1;">l</text>
<text transform="matrix(1 0 0 1 381.501 76.3027)" fill="#3E4543" font-family="'TimesNewRomanPSMT'" font-size="16.876" id="text49" style="fill:#ffffff;fill-opacity:1;">i</text>
<text transform="matrix(1 0 0 1 387.8535 76.3027)" fill="#3E4543" font-family="'TimesNewRomanPSMT'" font-size="16.876" id="text51" style="fill:#ffffff;fill-opacity:1;">s</text>
<text transform="matrix(1 0 0 1 396.084 76.3027)" fill="#3E4543" font-family="'TimesNewRomanPSMT'" font-size="16.876" id="text53" style="fill:#ffffff;fill-opacity:1;">c</text>
<text transform="matrix(1 0 0 1 405.2363 76.3027)" fill="#3E4543" font-family="'TimesNewRomanPSMT'" font-size="16.876" id="text55" style="fill:#ffffff;fill-opacity:1;">o</text>
<path fill="#3E4543" d="M39.005,13.821v-0.686H37.95v0.686h-0.675v1.071h0.675v0.688h1.055v-0.688h0.667v-1.071H39.005z   M39.517,14.729h-0.674v0.688h-0.733v-0.688h-0.675v-0.744h0.675V13.3h0.733v0.686h0.674V14.729z M32.045,13.821v-0.686H30.99v0.686  h-0.672v1.071h0.672v0.688h1.056v-0.688h0.673v-1.071H32.045z M32.566,14.729h-0.679v0.688h-0.736v-0.688h-0.673v-0.744h0.673V13.3  h0.736v0.686h0.679V14.729z M39.005,6.987V6.301H37.95v0.687h-0.675v1.07h0.675v0.688h1.055V8.058h0.667v-1.07H39.005z   M39.517,7.896h-0.674v0.688h-0.733V7.896h-0.675V7.148h0.675V6.464h0.733v0.685h0.674V7.896z M32.045,6.987V6.301H30.99v0.687  h-0.672v1.07h0.672v0.688h1.056V8.058h0.673v-1.07H32.045z M32.566,7.896h-0.679v0.688h-0.736V7.896h-0.673V7.148h0.673V6.464h0.736  v0.685h0.679V7.896z M31.456,30.834l0.449-1.062l0.448,1.062l-0.448,1.06L31.456,30.834z M32.774,30.834l0.568-1.339l0.564,1.339  l-0.564,1.339L32.774,30.834z M38.524,30.834l-0.452-1.062l-0.448,1.062l0.448,1.06L38.524,30.834z M37.199,30.834l-0.561-1.339  l-0.567,1.339l0.567,1.339L37.199,30.834z M35.593,30.834l-0.653-1.545l-0.661,1.545l0.661,1.546L35.593,30.834z M49.439,70.634  v-1.121h0.088c0.022,0.215,0.026,0.277,0.145,0.277c0.093,0,0.365-0.108,0.484-0.16v-0.774c-0.264-0.097-0.408-0.151-0.47-0.151  c-0.136,0-0.144,0.161-0.158,0.283h-0.088v-0.703h0.088c0.034,0.186,0.156,0.232,0.426,0.338l1.979,0.768v0.097l-1.897,0.768  c-0.39,0.16-0.513,0.217-0.507,0.38H49.439z M50.295,69.579l0.875-0.349l-0.875-0.324V69.579z M51.791,67.746  c-0.014-0.195-0.018-0.31-0.329-0.31h-1.578c-0.654,0-0.79-0.397-0.79-0.751c0-0.518,0.394-0.586,0.459-0.586  c0.196,0,0.273,0.146,0.273,0.246c0,0.075-0.069,0.246-0.266,0.246c-0.14,0-0.134-0.091-0.237-0.091c-0.061,0-0.11,0.056-0.11,0.152  c0,0.225,0.204,0.225,0.313,0.225h2.01c0.246,0,0.249-0.15,0.253-0.346h0.091v1.214H51.791z M49.439,65.427v-1.121h0.088  c0.022,0.214,0.026,0.276,0.145,0.276c0.093,0,0.365-0.105,0.484-0.156v-0.78c-0.264-0.093-0.408-0.147-0.47-0.147  c-0.136,0-0.144,0.16-0.158,0.277h-0.088v-0.703h0.088c0.034,0.188,0.156,0.238,0.426,0.342l1.979,0.768v0.095l-1.897,0.775  c-0.39,0.152-0.513,0.212-0.507,0.375H49.439z M50.295,64.372l0.875-0.351l-0.875-0.32V64.372z M49.527,60.345  c0.026,0.195,0.042,0.308,0.262,0.308h1.748c0.235,0,0.246-0.148,0.253-0.308h0.091v1.07c0,0.194-0.011,0.902-0.576,0.902  c-0.404,0-0.492-0.391-0.545-0.539h-0.006c-0.051,0.293-0.229,0.656-0.637,0.656c-0.305,0-0.66-0.246-0.677-0.973v-1.117H49.527z   M49.778,61.205c-0.163,0-0.225,0.062-0.225,0.208c0,0.379,0.326,0.422,0.547,0.422c0.518,0,0.571-0.302,0.579-0.526v-0.104H49.778z   M50.79,61.205c0,0.465,0.146,0.543,0.518,0.543c0.254,0,0.464-0.078,0.464-0.36c0-0.175-0.095-0.183-0.176-0.183H50.79z   M49.439,59.625V58.51h0.088c0.022,0.213,0.026,0.273,0.145,0.273c0.093,0,0.365-0.11,0.484-0.16V57.85  c-0.264-0.097-0.408-0.155-0.47-0.155c-0.136,0-0.144,0.165-0.158,0.287h-0.088v-0.707h0.088c0.034,0.188,0.156,0.236,0.426,0.341  l1.979,0.769v0.095l-1.897,0.774c-0.39,0.154-0.513,0.208-0.507,0.372H49.439z M50.295,58.572l0.875-0.346l-0.875-0.327V58.572z   M49.439,56.676v-0.711l1.133-0.723v-0.089h-0.708c-0.292,0-0.3,0.075-0.336,0.304h-0.088v-1.166h0.088  c0.034,0.235,0.042,0.302,0.336,0.302h1.599c0.308,0,0.314-0.104,0.329-0.302h0.091V55.4c0,0.242-0.028,0.982-0.635,0.982  c-0.444,0-0.556-0.357-0.616-0.549l-1.026,0.697c-0.071,0.047-0.077,0.101-0.077,0.145H49.439z M50.687,55.153  c0.003,0.456,0.084,0.634,0.552,0.634c0.365,0,0.521-0.145,0.521-0.42c0-0.189-0.04-0.195-0.152-0.214H50.687z M49.439,53.106  v-1.239h0.088c0.026,0.254,0.034,0.335,0.336,0.335h1.904c-0.018-0.241-0.032-0.593-0.609-0.665v-0.104l0.724,0.012v2.07  l-0.724,0.012v-0.102c0.578-0.069,0.592-0.424,0.609-0.659h-1.904c-0.31,0-0.314,0.078-0.336,0.34H49.439z M49.439,70.634v-1.121  h0.088c0.022,0.215,0.026,0.277,0.145,0.277c0.093,0,0.365-0.108,0.484-0.16v-0.774c-0.264-0.097-0.408-0.151-0.47-0.151  c-0.136,0-0.144,0.161-0.158,0.283h-0.088v-0.703h0.088c0.034,0.186,0.156,0.232,0.426,0.338l1.979,0.768v0.097l-1.897,0.768  c-0.39,0.16-0.513,0.217-0.507,0.38H49.439z M50.295,69.579l0.875-0.349l-0.875-0.324V69.579z M51.791,67.746  c-0.014-0.195-0.018-0.31-0.329-0.31h-1.578c-0.654,0-0.79-0.397-0.79-0.751c0-0.518,0.394-0.586,0.459-0.586  c0.196,0,0.273,0.146,0.273,0.246c0,0.075-0.069,0.246-0.266,0.246c-0.14,0-0.134-0.091-0.237-0.091c-0.061,0-0.11,0.056-0.11,0.152  c0,0.225,0.204,0.225,0.313,0.225h2.01c0.246,0,0.249-0.15,0.253-0.346h0.091v1.214H51.791z M49.439,65.427v-1.121h0.088  c0.022,0.214,0.026,0.276,0.145,0.276c0.093,0,0.365-0.105,0.484-0.156v-0.78c-0.264-0.093-0.408-0.147-0.47-0.147  c-0.136,0-0.144,0.16-0.158,0.277h-0.088v-0.703h0.088c0.034,0.188,0.156,0.238,0.426,0.342l1.979,0.768v0.095l-1.897,0.775  c-0.39,0.152-0.513,0.212-0.507,0.375H49.439z M50.295,64.372l0.875-0.351l-0.875-0.32V64.372z M49.527,60.345  c0.026,0.195,0.042,0.308,0.262,0.308h1.748c0.235,0,0.246-0.148,0.253-0.308h0.091v1.07c0,0.194-0.011,0.902-0.576,0.902  c-0.404,0-0.492-0.391-0.545-0.539h-0.006c-0.051,0.293-0.229,0.656-0.637,0.656c-0.305,0-0.66-0.246-0.677-0.973v-1.117H49.527z   M49.778,61.205c-0.163,0-0.225,0.062-0.225,0.208c0,0.379,0.326,0.422,0.547,0.422c0.518,0,0.571-0.302,0.579-0.526v-0.104H49.778z   M50.79,61.205c0,0.465,0.146,0.543,0.518,0.543c0.254,0,0.464-0.078,0.464-0.36c0-0.175-0.095-0.183-0.176-0.183H50.79z   M49.439,59.625V58.51h0.088c0.022,0.213,0.026,0.273,0.145,0.273c0.093,0,0.365-0.11,0.484-0.16V57.85  c-0.264-0.097-0.408-0.155-0.47-0.155c-0.136,0-0.144,0.165-0.158,0.287h-0.088v-0.707h0.088c0.034,0.188,0.156,0.236,0.426,0.341  l1.979,0.769v0.095l-1.897,0.774c-0.39,0.154-0.513,0.208-0.507,0.372H49.439z M50.295,58.572l0.875-0.346l-0.875-0.327V58.572z   M49.439,56.676v-0.711l1.133-0.723v-0.089h-0.708c-0.292,0-0.3,0.075-0.336,0.304h-0.088v-1.166h0.088  c0.034,0.235,0.042,0.302,0.336,0.302h1.599c0.308,0,0.314-0.104,0.329-0.302h0.091V55.4c0,0.242-0.028,0.982-0.635,0.982  c-0.444,0-0.556-0.357-0.616-0.549l-1.026,0.697c-0.071,0.047-0.077,0.101-0.077,0.145H49.439z M50.687,55.153  c0.003,0.456,0.084,0.634,0.552,0.634c0.365,0,0.521-0.145,0.521-0.42c0-0.189-0.04-0.195-0.152-0.214H50.687z M49.439,53.106  v-1.239h0.088c0.026,0.254,0.034,0.335,0.336,0.335h1.904c-0.018-0.241-0.032-0.593-0.609-0.665v-0.104l0.724,0.012v2.07  l-0.724,0.012v-0.102c0.578-0.069,0.592-0.424,0.609-0.659h-1.904c-0.31,0-0.314,0.078-0.336,0.34H49.439z M17.939,51.242  c0.01,0.064,0.024,0.168,0.143,0.235l1.121,0.664h0.666c0.303,0,0.307-0.081,0.335-0.323h0.088v1.201h-0.088  c-0.028-0.24-0.032-0.321-0.335-0.321h-0.532l-1.198,0.634c-0.035,0.017-0.189,0.103-0.199,0.274h-0.091V52.45h0.091  c0,0.239,0.022,0.282,0.122,0.282c0.055,0,0.146-0.058,0.205-0.089l0.837-0.41l-0.671-0.387c-0.038-0.019-0.234-0.135-0.333-0.135  c-0.14,0-0.151,0.131-0.161,0.293h-0.091v-0.763H17.939z M20.292,55.483v1.122h-0.088c-0.019-0.219-0.026-0.273-0.141-0.273  c-0.097,0-0.364,0.106-0.479,0.151v0.779c0.258,0.1,0.406,0.152,0.464,0.152c0.137,0,0.15-0.164,0.156-0.282h0.088v0.699h-0.088  c-0.032-0.183-0.156-0.231-0.423-0.338L17.8,56.729v-0.098l1.899-0.769c0.384-0.157,0.511-0.217,0.503-0.38H20.292z M19.438,56.538  l-0.876,0.349l0.876,0.327V56.538z M18.572,58.762c-0.251,0.063-0.664,0.272-0.664,0.677c0,0.181,0.104,0.37,0.343,0.37  c0.191,0,0.273-0.065,0.424-0.354l0.27-0.511c0.054-0.119,0.269-0.381,0.66-0.381c0.321,0,0.754,0.22,0.754,0.859  c0,0.33-0.124,0.481-0.124,0.59c0,0.074,0.071,0.089,0.124,0.108v0.097h-0.887v-0.097c0.359-0.072,0.77-0.274,0.77-0.712  c0-0.42-0.355-0.431-0.407-0.431c-0.233,0-0.324,0.158-0.438,0.388l-0.113,0.229c-0.299,0.593-0.608,0.593-0.774,0.593  c-0.226,0-0.715-0.107-0.715-0.765c0-0.279,0.123-0.438,0.123-0.54c0-0.081-0.057-0.1-0.123-0.112v-0.104h0.778V58.762z   M20.203,63.349c-0.028-0.206-0.056-0.302-0.293-0.302h-1.708c-0.253,0.194-0.263,0.245-0.263,0.293h-0.091v-0.73l1.539-1.196  v-0.007H18.3c-0.218,0-0.338,0.037-0.361,0.319h-0.091v-0.744h0.091c0.031,0.25,0.114,0.272,0.29,0.272h2.129v0.094l-1.959,1.538  v0.006h1.443c0.26,0,0.329-0.068,0.361-0.329h0.088v0.786H20.203z M17.848,66.206v-1.993h0.724v0.085  c-0.511,0.081-0.603,0.322-0.603,0.795c0,0.188,0.016,0.248,0.171,0.248h0.838c0.005-0.33-0.087-0.506-0.536-0.558v-0.091h1.221  v0.091c-0.45,0.039-0.561,0.22-0.561,0.558h0.871c0.161,0,0.203-0.062,0.203-0.289c0-0.337-0.094-0.691-0.638-0.908v-0.099  l0.752,0.142v2.02h-0.088c-0.026-0.195-0.032-0.304-0.254-0.304h-1.751c-0.239,0-0.25,0.147-0.259,0.304H17.848z M20.292,66.878  v1.21h-0.088c-0.019-0.184-0.032-0.321-0.254-0.321h-1.751c-0.239,0-0.25,0.165-0.259,0.321h-0.091v-1.21h0.091  c0.007,0.161,0.01,0.325,0.259,0.325h1.751c0.226,0,0.235-0.133,0.254-0.325H20.292z M20.203,70.776  c-0.032-0.179-0.032-0.181-0.056-0.207c-0.029-0.041-0.075-0.091-0.279-0.091h-1.603c-0.297,0-0.306,0.11-0.327,0.298h-0.091v-1.123  c0-0.272,0.06-0.905,0.663-0.905c0.126,0,0.389,0.039,0.547,0.315c0.129,0.228,0.132,0.4,0.139,0.858h0.671  c0.293,0,0.303-0.069,0.335-0.303h0.088v1.157H20.203z M19.072,69.922c0.006-0.424-0.097-0.575-0.547-0.575  c-0.414,0-0.547,0.124-0.547,0.404c0,0.121,0.042,0.162,0.125,0.171H19.072z M38.857,54.35c-0.833,0-1.064-0.598-1.064-0.598  s0.587,0.192,1.049,0.192c0.454,0,1.024-0.192,1.024-0.192S39.698,54.35,38.857,54.35z M38.857,57.675  c-0.833,0-1.064-0.596-1.064-0.596s0.587,0.191,1.049,0.191c0.454,0,1.024-0.191,1.024-0.191S39.698,57.675,38.857,57.675z   M37.897,59.507c-0.839,0-1.068-0.596-1.068-0.596s0.584,0.192,1.046,0.192c0.458,0,1.025-0.192,1.025-0.192  S38.731,59.507,37.897,59.507z M32.347,59.507c-0.838,0-1.07-0.596-1.07-0.596s0.585,0.192,1.05,0.192  c0.459,0,1.024-0.192,1.024-0.192S33.182,59.507,32.347,59.507z M30.129,57.079c0,0,0.583,0.191,1.042,0.191  c0.462,0,1.031-0.191,1.031-0.191s-0.169,0.596-1.009,0.596C30.358,57.675,30.129,57.079,30.129,57.079z M29.937,53.752  c0,0,0.588,0.192,1.047,0.192c0.465,0,1.024-0.192,1.024-0.192s-0.164,0.598-1.003,0.598C30.169,54.35,29.937,53.752,29.937,53.752z   M32.913,55.242c0.458,0,1.028-0.189,1.028-0.189s-0.168,0.594-1.004,0.594c-0.842,0-1.074-0.594-1.074-0.594  S32.45,55.242,32.913,55.242z M34.925,53.944c0.456,0,1.023-0.192,1.023-0.192s-0.167,0.598-1.004,0.598  c-0.84,0-1.069-0.598-1.069-0.598S34.464,53.944,34.925,53.944z M37.058,55.242c0.459,0,1.024-0.189,1.024-0.189  s-0.166,0.594-1.004,0.594c-0.842,0-1.064-0.594-1.064-0.594S36.591,55.242,37.058,55.242z M40.571,53.766  c0,0,0.483-1.798-0.595-2.902c-1.089-1.107-2.289-0.858-2.289-0.858s-0.843-1.593-2.77-1.593c-1.93,0-2.57,1.549-2.57,1.549  s-2.01-0.079-2.812,1.473c-0.805,1.558-0.281,2.292-0.281,2.292s-1.038,0.857-0.881,2.493c0,0,0.357,1.307,1.406,2.039  c0,0,0.117,1.554,1.85,2.04c1.157,0.333,2.567-0.238,2.567-0.238v12.628c0,0-0.764,1.551-1.886,1.551c0,0,0.159,0.733,1.886,0.733  c0,0,0.239,1.396,0.798,1.396c0,0,0.804-0.29,0.804-1.396c0,0,1.522-0.079,1.845-0.694c0,0-1.763-0.487-1.763-1.59V60.06  c0,0,0.881,0.487,1.081,0.444c0.198-0.041,2.615,0.082,3.053-2.205c0,0,1.567-1.021,1.567-2.617  C41.582,54.621,40.571,53.766,40.571,53.766z M24.099,64.073l0.031,1.254l0.598,1.201l0.631-1.535l-0.21-0.892l0.513-0.244  l0.542,0.521l-1.168,4.631l0.175,1.283l-0.062,0.705l0.334,0.429l0.146,0.554l-0.39,0.432v1.772h1.931l-1.025-0.824v-0.741  l1.025-0.519l0.299-2.48l3.101-0.647l0.996-2.018l0.782-0.616l0.752-0.301l0.181-1.045l0.872-0.829v-1.104  c0,0-1.654,1.81-2.255,2.206c-0.604,0.403-1.06-0.026-1.06-0.026s-0.028-0.495,0-0.586c0.034-0.09,0.693-0.216,0.693-0.216  l0.153-0.455l-0.092-0.341c0,0-0.214-0.145-0.392-0.09c-0.086,0.458-0.481,0.251-0.481-0.125c0-0.397,0.543-0.307,0.634-0.333  c0.09-0.034-0.061-0.647-0.061-0.647L30.9,62.142l-0.723,0.09c-0.69-0.429-2.288,0.523-2.288,0.523s0.093,0.49-0.09,0.767  c-0.181,0.276-0.27,1.38-0.298,1.53c-0.033,0.152,0.388,1.136,0.388,1.136c0.032,0.151,0.032,0.949,0.032,0.949  c-1.205,0.366-1.688,1.256-1.777,1.35c-0.089,0.089-0.182,0.089-0.182,0.089l1.051-4.287l-1.232-1.471L24.099,64.073z M29.85,62.97  l0.025-0.369l0.603,0.091L29.85,62.97z M29.154,64.839l0.417-0.582v1.163L29.154,64.839z M28.464,66.094l0.421-0.581v1.163  L28.464,66.094z M28.464,63.583l0.421-0.582v1.163L28.464,63.583z M27.949,64.839l0.424-0.582v1.163L27.949,64.839z M28.011,70.048  l1.415,0.855l0.122,1.321l-1.083,0.463v0.736l1.107,0.824H27.53L28.011,70.048z M34.181,65.451L33.1,66.616l-0.812,0.339  l-0.757,1.473l0.783-0.218l0.875-0.581l0.963-1.073L34.181,65.451z M44.237,62.817l-1.229,1.471l1.051,4.287  c0,0-0.092,0-0.181-0.089c-0.088-0.094-0.572-0.983-1.779-1.35c0,0,0-0.798,0.031-0.949c0,0,0.423-0.983,0.395-1.136  c-0.028-0.15-0.121-1.254-0.302-1.53c-0.18-0.276-0.092-0.767-0.092-0.767s-1.593-0.952-2.286-0.523l-0.719-0.09l-0.396,0.306  c0,0-0.149,0.613-0.061,0.647c0.094,0.026,0.632-0.064,0.632,0.333c0,0.376-0.39,0.583-0.481,0.125  c-0.17-0.055-0.392,0.09-0.392,0.09l-0.089,0.341l0.15,0.455c0,0,0.662,0.126,0.693,0.216c0.03,0.091,0,0.586,0,0.586  s-0.453,0.43-1.055,0.026c-0.601-0.396-2.257-2.206-2.257-2.206v1.104l0.875,0.829l0.177,1.045l0.752,0.301l0.786,0.616l0.989,2.018  l3.104,0.647l0.302,2.48l1.023,0.519v0.741l-1.023,0.824h1.928v-1.772l-0.393-0.432l0.154-0.554l0.327-0.429l-0.063-0.705  l0.183-1.283l-1.172-4.631l0.539-0.521l0.514,0.244l-0.209,0.892l0.631,1.535l0.604-1.201l0.027-1.254L44.237,62.817z   M39.543,62.691l0.603-0.091l0.025,0.369L39.543,62.691z M40.44,65.42v-1.163l0.424,0.582L40.44,65.42z M41.137,66.676v-1.163  l0.423,0.581L41.137,66.676z M41.137,64.164v-1.163l0.423,0.582L41.137,64.164z M41.649,65.42v-1.163l0.419,0.582L41.649,65.42z   M42.012,70.048l-1.415,0.855l-0.124,1.321l1.086,0.463v0.736l-1.119,0.824h2.056L42.012,70.048z M35.841,65.451l1.081,1.165  l0.812,0.339l0.754,1.473l-0.781-0.218l-0.876-0.581l-0.961-1.073L35.841,65.451z M50.962,77.913l-1.049-1.068l-0.939,0.95  l-0.932-0.95l-1.051,1.068l0.938,0.952l-0.938,0.956l1.051,1.07l0.932-0.955l0.939,0.955l1.049-1.07l-0.936-0.956L50.962,77.913z   M22.5,77.913l-1.049-1.068l-0.937,0.95l-0.938-0.95l-1.053,1.068l0.94,0.952l-0.94,0.956l1.053,1.07l0.938-0.955l0.937,0.955  l1.049-1.07l-0.938-0.956L22.5,77.913z M52.087,42.934l-1.049-1.072L50.1,42.816l-0.938-0.955l-1.05,1.072l0.936,0.95l-0.936,0.955  l1.05,1.073l0.938-0.959l0.938,0.959l1.049-1.073l-0.937-0.955L52.087,42.934z M21.863,42.934l-1.051-1.072l-0.941,0.955  l-0.939-0.955l-1.044,1.072l0.935,0.95l-0.935,0.955l1.044,1.073l0.939-0.959l0.941,0.959l1.051-1.073l-0.938-0.955L21.863,42.934z   M61.363,25.528l-1.058-0.322l0.036-0.128c0.214,0.037,0.271,0.048,0.32-0.124c0.039-0.138,0.044-0.552,0.047-0.734l-0.729-0.222  c-0.204,0.342-0.311,0.542-0.341,0.624c-0.05,0.196,0.099,0.265,0.204,0.305l-0.033,0.126l-0.662-0.197l0.039-0.132  c0.186,0.019,0.281-0.146,0.494-0.504l1.53-2.622l0.086,0.03l-0.048,2.94c-0.009,0.602-0.009,0.788,0.156,0.831L61.363,25.528z   M60.718,24.005l0.029-1.357l-0.666,1.169L60.718,24.005z M59.037,24.836l-0.674-0.189l-0.256-1.891l-0.09-0.029l-0.266,1.067  c-0.105,0.43-0.042,0.47,0.171,0.581l-0.039,0.132L56.77,24.19l0.035-0.133c0.234,0.021,0.307,0.025,0.419-0.416l0.594-2.4  c0.117-0.467,0.015-0.508-0.163-0.584l0.031-0.134l1.062,0.303c0.225,0.067,0.909,0.31,0.684,1.225  c-0.165,0.662-0.545,0.735-0.747,0.773l0.274,1.739c0.02,0.11,0.069,0.128,0.113,0.141L59.037,24.836z M58.062,22.552  c0.429,0.12,0.625,0.047,0.803-0.653c0.14-0.551,0.062-0.827-0.199-0.897c-0.18-0.051-0.2,0.008-0.263,0.168L58.062,22.552z   M56.693,24.233l-1.067-0.272l0.032-0.142c0.209,0.027,0.273,0.042,0.31-0.139c0.032-0.146,0.019-0.57,0.013-0.761l-0.746-0.189  c-0.179,0.366-0.283,0.578-0.302,0.663c-0.05,0.205,0.109,0.262,0.22,0.302l-0.025,0.136l-0.677-0.172l0.031-0.134  c0.188,0.002,0.274-0.173,0.469-0.549l1.404-2.781l0.087,0.023l0.094,3.033c0.02,0.62,0.028,0.817,0.194,0.843L56.693,24.233z   M55.979,22.702L55.941,21.3l-0.609,1.238L55.979,22.702z M55.219,20.032c-0.213,0.003-0.326,0-0.367,0.44l-0.202,2.199  c-0.086,0.916-0.516,1.074-0.888,1.048c-0.537-0.042-0.555-0.604-0.551-0.686c0.031-0.278,0.193-0.378,0.294-0.373  c0.082,0.009,0.25,0.119,0.223,0.398c-0.018,0.199-0.113,0.177-0.127,0.322c-0.001,0.087,0.047,0.162,0.142,0.169  c0.235,0.018,0.261-0.265,0.278-0.42l0.259-2.806c0.029-0.347-0.128-0.366-0.332-0.389l0.011-0.129l1.27,0.097L55.219,20.032z   M53.095,23.402l-1.08-0.19l0.019-0.139c0.211,0.012,0.273,0.017,0.3-0.165c0.024-0.146-0.018-0.575-0.038-0.76l-0.75-0.135  c-0.159,0.384-0.247,0.596-0.261,0.684c-0.033,0.207,0.124,0.254,0.235,0.281l-0.019,0.14L50.821,23l0.022-0.144  c0.188-0.008,0.262-0.187,0.431-0.578L52.49,19.4l0.097,0.019l0.288,3.022c0.056,0.615,0.078,0.807,0.246,0.828L53.095,23.402z   M52.281,21.924l-0.128-1.394l-0.523,1.278L52.281,21.924z M50.722,22.993l-1.947-0.267l0.018-0.137  c0.193-0.018,0.294-0.024,0.339-0.361l0.317-2.728c0.048-0.366-0.09-0.4-0.236-0.438l0.01-0.141l1.18,0.166l-0.02,0.137  c-0.236-0.018-0.34-0.024-0.402,0.471l-0.309,2.656c-0.035,0.272,0.033,0.323,0.261,0.355c0.509,0.072,0.754-0.372,0.983-0.983  l0.096,0.016L50.722,22.993z M48.662,22.763l-1.115-0.173l0.02-0.142c0.218,0.006,0.281,0.01,0.309-0.176  c0.02-0.147-0.032-0.581-0.057-0.765l-0.771-0.122c-0.156,0.39-0.238,0.607-0.251,0.695c-0.029,0.212,0.132,0.255,0.247,0.287  l-0.022,0.14l-0.69-0.107l0.018-0.139c0.188-0.016,0.267-0.199,0.425-0.603l1.188-2.938l0.094,0.014l0.357,3.055  c0.069,0.62,0.099,0.82,0.265,0.836L48.662,22.763z M47.91,21.284l-0.158-1.406l-0.509,1.298L47.91,21.284z M44.307,22.044  c0.213,0.022,0.296-0.135,0.314-0.343l0.236-2.758c0.033-0.341-0.119-0.362-0.254-0.397l0.018-0.142l1.034,0.101  c0.943,0.095,1.168,1.101,1.096,1.961c-0.092,1.027-0.531,1.86-1.388,1.82l-1.07-0.101L44.307,22.044z M45.168,21.745  c-0.022,0.224,0.003,0.326,0.165,0.343c0.382,0.037,0.707-0.293,0.824-1.625c0.049-0.511,0.068-1.712-0.514-1.766  c-0.216-0.023-0.228,0.118-0.232,0.242L45.168,21.745z M44.075,22.151l-1.093-0.089l0.007-0.141c0.213-0.01,0.278-0.01,0.289-0.19  c0.014-0.152-0.064-0.569-0.097-0.747l-0.763-0.067c-0.124,0.391-0.198,0.612-0.206,0.701c-0.015,0.205,0.144,0.241,0.26,0.262  l-0.008,0.137l-0.688-0.06l0.011-0.139c0.184-0.029,0.248-0.21,0.384-0.616l0.98-2.963l0.093,0.008l0.533,2.973  c0.105,0.601,0.152,0.794,0.313,0.797L44.075,22.151z M43.145,20.763l-0.237-1.373l-0.422,1.319L43.145,20.763z M42.235,18.311  c-0.186,0.029-0.267,0.087-0.276,0.454l-0.071,1.766c-0.018,0.327-0.081,0.821-0.232,1.062c-0.18,0.29-0.482,0.385-0.681,0.377  c-0.148-0.008-0.471-0.057-0.68-0.383c-0.135-0.213-0.221-0.414-0.197-1.009l0.072-1.852c0.016-0.462-0.072-0.479-0.257-0.519  l0.004-0.138l1.15,0.049l-0.01,0.136c-0.218,0.01-0.33,0.01-0.349,0.497l-0.068,1.851c-0.016,0.313-0.042,1.079,0.447,1.099  c0.596,0.024,0.635-0.82,0.648-1.177l0.064-1.688c0.018-0.336-0.016-0.525-0.31-0.563l0.007-0.141l0.746,0.036L42.235,18.311z   M39.884,20.399c-0.209,0.026-0.294,0.044-0.308,0.494l-0.033,0.698c-0.172,0.178-0.643,0.31-0.929,0.298  c-0.852-0.043-1.187-1.038-1.147-1.994c0.051-1.082,0.558-1.949,1.291-1.916c0.305,0.014,0.556,0.297,0.637,0.305  c0.094,0.004,0.132-0.11,0.17-0.246l0.092,0.002l-0.059,1.289l-0.082-0.005c-0.1-0.482-0.352-1.142-0.741-1.159  c-0.492-0.028-0.667,0.801-0.706,1.75c-0.02,0.392-0.057,1.762,0.582,1.793c0.305,0.014,0.362-0.149,0.375-0.386l0.019-0.576  c0.021-0.354-0.088-0.367-0.323-0.401l0.007-0.135l1.163,0.054L39.884,20.399z M34.678,18.026l1.96,0.026l-0.016,1.136H36.54  c-0.072-0.805-0.311-0.949-0.766-0.96c-0.194,0-0.249,0.025-0.254,0.271l-0.012,1.309c0.322,0.011,0.496-0.14,0.558-0.834h0.086  l-0.017,1.911l-0.094-0.002c-0.035-0.709-0.2-0.877-0.54-0.884l-0.013,1.365c-0.007,0.249,0.057,0.32,0.282,0.325  c0.329,0,0.678-0.14,0.9-0.993h0.093l-0.146,1.179l-1.98-0.028v-0.139c0.188-0.033,0.299-0.049,0.304-0.4l0.026-2.734  c0.009-0.374-0.135-0.388-0.289-0.405V18.026z M32.294,21.762c0.21-0.003,0.278-0.17,0.278-0.378l-0.031-2.791  c-0.004-0.346-0.155-0.354-0.287-0.374v-0.141l1.038-0.016c0.946-0.01,1.271,0.973,1.282,1.841c0.009,1.041-0.349,1.926-1.206,1.986  l-1.075,0.012V21.762z M33.123,21.363c0.007,0.229,0.034,0.326,0.196,0.326c0.381-0.005,0.672-0.37,0.659-1.724  c-0.007-0.513-0.095-1.719-0.681-1.707c-0.217,0.001-0.214,0.139-0.21,0.267L33.123,21.363z M29.319,21.898  c0.216-0.013,0.278-0.177,0.266-0.386l-0.12-2.748c-0.013-0.341-0.165-0.346-0.297-0.36l-0.003-0.141l1.035-0.049  c0.943-0.047,1.3,0.903,1.336,1.764c0.045,1.023-0.283,1.92-1.137,2.004l-1.072,0.052L29.319,21.898z M30.137,21.475  c0.013,0.223,0.047,0.32,0.207,0.314c0.381-0.02,0.662-0.391,0.606-1.725c-0.026-0.508-0.155-1.69-0.736-1.66  c-0.22,0.01-0.209,0.148-0.202,0.27L30.137,21.475z M29.245,22.034l-1.095,0.084l-0.009-0.141c0.208-0.045,0.271-0.054,0.258-0.232  c-0.013-0.148-0.148-0.549-0.21-0.72l-0.763,0.063c-0.068,0.396-0.108,0.626-0.1,0.713c0.015,0.212,0.18,0.215,0.292,0.219  l0.013,0.134l-0.687,0.057l-0.011-0.14c0.183-0.058,0.214-0.248,0.288-0.666l0.544-3.065l0.096-0.007l0.948,2.826  c0.201,0.579,0.263,0.758,0.426,0.739L29.245,22.034z M28.125,20.816l-0.438-1.309l-0.224,1.359L28.125,20.816z M24.779,22.303  c0.213-0.01,0.272-0.178,0.263-0.391l-0.152-2.76c-0.019-0.345-0.17-0.345-0.303-0.354l-0.002-0.142l1.033-0.065  c0.943-0.065,1.304,0.89,1.355,1.75c0.055,1.035-0.264,1.928-1.117,2.033l-1.068,0.067L24.779,22.303z M25.588,21.869  c0.014,0.223,0.048,0.322,0.216,0.312c0.375-0.027,0.654-0.406,0.581-1.745c-0.029-0.509-0.166-1.699-0.755-1.661  c-0.215,0.016-0.204,0.157-0.193,0.281L25.588,21.869z M24.699,22.441l-1.184,0.099l-0.012-0.14  c0.183-0.048,0.313-0.077,0.288-0.429l-0.195-2.725c-0.029-0.372-0.186-0.372-0.343-0.373L23.24,18.73l1.187-0.097l0.009,0.142  c-0.159,0.022-0.323,0.046-0.292,0.426l0.197,2.723c0.026,0.362,0.161,0.369,0.353,0.376L24.699,22.441z M23.036,19.904  c-0.106-0.367-0.396-0.952-0.792-0.896c-0.175,0.027-0.34,0.214-0.292,0.561c0.04,0.289,0.125,0.397,0.433,0.582l0.545,0.319  c0.125,0.072,0.423,0.35,0.503,0.933c0.059,0.47-0.066,1.148-0.687,1.237c-0.318,0.044-0.496-0.118-0.598-0.102  c-0.07,0.013-0.072,0.109-0.072,0.197l-0.102,0.016l-0.176-1.322l0.097-0.016c0.138,0.53,0.415,1.105,0.837,1.045  c0.406-0.058,0.354-0.586,0.341-0.656c-0.043-0.36-0.222-0.461-0.461-0.6l-0.246-0.14c-0.636-0.354-0.692-0.814-0.728-1.061  c-0.045-0.33-0.038-1.069,0.602-1.159c0.266-0.04,0.446,0.116,0.545,0.101c0.08-0.011,0.082-0.092,0.09-0.196l0.099-0.017  l0.159,1.16L23.036,19.904z M21.826,22.814l-0.689,0.104l-0.916-1.645l-0.093,0.014l0.139,1.093  c0.058,0.444,0.131,0.447,0.359,0.469l0.016,0.138l-1.132,0.162l-0.021-0.139c0.222-0.078,0.291-0.102,0.235-0.552l-0.309-2.459  c-0.059-0.48-0.165-0.479-0.361-0.47l-0.02-0.14l1.088-0.156c0.236-0.032,0.957-0.096,1.07,0.842  c0.088,0.688-0.236,0.909-0.406,1.03l0.872,1.485c0.063,0.093,0.113,0.093,0.148,0.085L21.826,22.814z M20.111,21.11  c0.438-0.071,0.595-0.217,0.505-0.94c-0.074-0.562-0.238-0.78-0.505-0.747c-0.186,0.033-0.184,0.092-0.178,0.271L20.111,21.11z   M16.755,19.867l1.93-0.387l0.199,1.089l-0.085,0.016c-0.215-0.755-0.478-0.837-0.932-0.749c-0.185,0.035-0.237,0.071-0.192,0.304  l0.226,1.251c0.327-0.061,0.47-0.235,0.399-0.912l0.082-0.016l0.335,1.823l-0.088,0.017c-0.159-0.666-0.363-0.795-0.691-0.729  l0.234,1.309c0.049,0.236,0.125,0.291,0.34,0.249c0.323-0.067,0.64-0.28,0.702-1.134l0.094-0.02l0.069,1.153l-1.951,0.385  l-0.023-0.13c0.185-0.072,0.28-0.11,0.225-0.444l-0.479-2.613c-0.062-0.356-0.208-0.339-0.362-0.322L16.755,19.867z M16.715,20.006  c-0.173,0.08-0.194,0.189-0.207,0.496l-0.091,3.224l-0.085,0.023l-1.532-2.93c-0.157-0.289-0.208-0.296-0.356-0.298l-0.027-0.129  l1.108-0.253l0.029,0.128c-0.201,0.071-0.28,0.089-0.236,0.286c0.025,0.099,0.135,0.304,0.199,0.424l0.791,1.548l0.046-1.81  c0.006-0.129,0.015-0.267-0.008-0.375c-0.046-0.201-0.146-0.201-0.339-0.175l-0.029-0.124l0.709-0.164L16.715,20.006z   M15.166,23.981l-1.154,0.302l-0.029-0.134c0.173-0.071,0.296-0.124,0.215-0.457l-0.611-2.567c-0.085-0.354-0.241-0.326-0.396-0.299  l-0.028-0.135l1.152-0.299l0.029,0.131c-0.152,0.054-0.312,0.102-0.224,0.461l0.613,2.568c0.083,0.339,0.215,0.319,0.403,0.294  L15.166,23.981z M11.674,24.653c0.191-0.09,0.271-0.15,0.185-0.49l-0.638-2.441c-0.281-0.309-0.331-0.309-0.378-0.297l-0.035-0.134  l0.695-0.183L13.215,23h0.009l-0.411-1.564c-0.075-0.307-0.167-0.468-0.439-0.427l-0.036-0.129l0.708-0.188l0.037,0.125  c-0.221,0.11-0.211,0.238-0.149,0.483l0.792,3.036l-0.086,0.025l-2.191-2.4l-0.012,0.001l0.543,2.063  c0.096,0.369,0.187,0.448,0.441,0.426l0.035,0.13l-0.742,0.197L11.674,24.653z M10.701,21.483c-0.167,0.1-0.22,0.181-0.115,0.514  l0.516,1.617c0.098,0.304,0.192,0.768,0.133,1.039c-0.075,0.331-0.329,0.517-0.52,0.586c-0.14,0.041-0.454,0.112-0.756-0.11  c-0.205-0.14-0.34-0.293-0.513-0.842l-0.541-1.696c-0.137-0.426-0.221-0.405-0.417-0.378L8.45,22.081l1.086-0.356l0.042,0.13  c-0.205,0.085-0.302,0.123-0.166,0.567l0.538,1.694c0.097,0.289,0.319,0.988,0.786,0.836c0.568-0.187,0.328-0.967,0.226-1.286  l-0.493-1.548c-0.1-0.31-0.194-0.472-0.48-0.403L9.95,21.592l0.714-0.232L10.701,21.483z M35.291,26.303  c2.566,0.233,3.134,2.317,3.134,2.317c-1.741-1.369-3.134-1.254-3.134-1.254V26.303z M34.579,26.303v1.063  c0,0-1.397-0.115-3.129,1.254C31.449,28.62,32.019,26.536,34.579,26.303z M31.003,29.912c0,0,1.092-1.205,3.922-1.205  c0.004,0,0.004,0,0.004,0c0.006,0,0.011,0,0.011,0c2.829,0,3.919,1.205,3.919,1.205v1.772c-1.294,1.318-3.84,1.151-3.93,1.145  c-0.083,0.007-2.626,0.174-3.927-1.145V29.912z M31.645,33.4c-0.07-0.106,0.084-0.201,0.084-0.201  c0.792,0.716,2.932,1.06,2.932,1.06v0.571c0,0-0.366,0.058-0.965-0.113l-0.311,0.57c0,0,0.229,0.398,1.544,0.399h0.006  c0.005,0,0.005,0,0.005,0c1.319-0.001,1.545-0.399,1.545-0.399l-0.316-0.57c-0.598,0.171-0.966,0.113-0.966,0.113v-0.571  c0,0,2.136-0.344,2.935-1.06c0,0,0.146,0.085,0.086,0.201c-0.059,0.112-1.102,1.258-1.102,1.4s0,1.012,0,1.156  s-0.831,0.953-2.187,0.959c-1.357-0.006-2.187-0.814-2.187-0.959s0-1.014,0-1.156S31.754,33.563,31.645,33.4z M46.715,72.13  c0,1.068,0.015,2.488-0.864,3.479c-0.625,0.711-1.505,1.056-3.106,1.056h-4.205c-2.135,0-3.583,1.662-3.583,1.662  s-1.306-1.662-3.557-1.662h-4.425c-1.146,0-2.136-0.302-2.769-1.02c-0.874-0.982-0.909-2.283-0.909-2.913c0-0.176,0-25.169,0-25.169  h23.417C46.715,47.562,46.715,71.948,46.715,72.13z M47.761,40.088h5.941c0,0,0,36.978,0,37.255c0,0.916-0.144,3.039-1.44,4.484  c-0.91,1.016-2.23,1.531-3.931,1.531h-8.042c-1.898,0-4.397,1.226-5.348,2.357c-0.951-1.132-3.432-2.357-5.369-2.357h-8.038  c-1.699,0-3.022-0.516-3.927-1.531c-1.298-1.445-1.44-3.568-1.44-4.484c0-0.277,0-37.255,0-37.255h5.943  c0.191,0.746,0.931,2.459,3.746,3.465c0,0,1.399,0.22,2.167,0.286c0.97,0.087,1.655,0.602,2.227,1.087  c0.476,0.407,1.42,1.314,1.595,1.459c0.078,0.065,0.182,0.152,0.312,0.248H22.39c0,26.008,0,25.606,0,26.412  c0,0.669,0.232,2.108,1.25,3.169c0.702,0.728,1.984,1.365,2.909,1.365h5.104c1.591,0,3.293,1.796,3.293,1.796  s1.668-1.796,3.518-1.796h4.812c1.417,0,2.581-0.764,3.255-1.52c0.922-1.052,1.094-2.457,1.094-3.285c0-0.188,0-26.142,0-26.142  h-9.912c0.131-0.096,0.235-0.183,0.312-0.248c0.171-0.145,1.115-1.052,1.596-1.459c0.567-0.485,1.253-1,2.225-1.087  c0.766-0.066,2.162-0.286,2.162-0.286C46.825,42.547,47.567,40.834,47.761,40.088z M48.628,39.34l-0.297-0.156l0.484-0.151  l-1.052-0.888c0,0,1.109,0,1.025-0.031c-0.095-0.03-1.267-1.29-1.267-1.29s1.351,0.157,1.267,0  c-0.095-0.153-1.236-1.255-1.148-1.192c0.092,0.056,1.117,0.182,1.088,0.092c-0.035-0.092-1.088-1.134-1.088-1.134  s1.148,0.243,1.088,0.12c-0.063-0.12-1.207-1.285-1.088-1.226c0.123,0.059,1.053,0.278,1.053,0.278  c-0.18-0.249-0.691-1.104-0.691-1.104l9.844,4.968L57.16,37.74l1.078,1.043l-1.144,0.063l1.114,1.013l-1.084,0.028l1.057,1.077  c0,0-1.145-0.097-1.087,0c0.066,0.091,1.203,1.16,1.087,1.131c-0.126-0.027-1.176,0-1.087,0.064c0.09,0.061,1.177,1.073,1.025,1.073  c-0.151,0-1.202-0.125-1.083-0.064c0.124,0.064,0.81,1.01,0.81,1.01l-3.423-1.798l-0.001-3.041H48.628z M22.974,39.34  c0.583-0.851,0.61-1.883,0.61-1.883v-6.122c0-1.804-1.314-2.18-1.833-2.376c-0.646-0.248-7.873-2.696-7.873-2.696  c9.484-2.258,20.699-2.053,21.047-2.043h0.01c0.351-0.01,11.549-0.211,21.023,2.043c0,0-7.221,2.448-7.868,2.696  c-0.517,0.196-1.838,0.572-1.838,2.376v6.122c0,0,0.03,1.034,0.618,1.883H46.85l-8.943-3.511c0,0-0.253-0.659,0.117-0.941  c0,0,1.082-0.915,1.512-2.433c0,0,0.968-0.288,0.968-1.345s-0.795-1.319-0.795-1.319s-0.881-4.403-4.763-4.427  c-0.002,0-0.006,0-0.011,0c-0.006,0-0.01,0-0.015,0c-3.88,0.023-4.76,4.427-4.76,4.427s-0.792,0.263-0.792,1.319  s0.967,1.345,0.967,1.345c0.429,1.518,1.509,2.433,1.509,2.433c0.373,0.282,0.112,0.941,0.112,0.941L23.02,39.34H22.974z   M15.442,42.387l-3.418,1.792c0,0,0.694-0.945,0.812-1.01c0.122-0.061-0.936,0.064-1.085,0.064c-0.148,0,0.935-1.013,1.025-1.073  c0.096-0.064-0.962-0.092-1.085-0.064c-0.116,0.029,1.027-1.04,1.085-1.131c0.06-0.097-1.085,0-1.085,0l1.061-1.077l-1.09-0.028  l1.114-1.013l-1.138-0.063l1.08-1.043l-0.694-0.115l9.845-4.968c0,0-0.511,0.855-0.691,1.104c0,0,0.933-0.22,1.05-0.278  c0.126-0.06-1.022,1.105-1.075,1.226c-0.066,0.123,1.075-0.12,1.075-0.12s-1.05,1.042-1.075,1.134  c-0.042,0.09,0.991-0.036,1.075-0.092c0.095-0.062-1.05,1.039-1.141,1.192c-0.091,0.157,1.267,0,1.267,0s-1.176,1.26-1.267,1.29  c-0.091,0.031,1.023,0.031,1.023,0.031l-1.053,0.888l0.479,0.151l-0.297,0.156h-5.794L15.442,42.387z M33.213,16.053  C6.729,16.32,5.939,22.727,5.939,22.727v6.969c0,2.328,0.795,2.285,1.68,2.734c0.459,0.234,7.442,2.495,7.442,2.495v0.306  l-3.005,1.469c-1.803,0.983-1.685,2.392-1.685,2.392v7.108c0,1.071,0.144,1.204,0.903,1.801c0.717,0.572,2.043,1.634,2.043,1.634  l-6.66,4.416l4.589,1.512v5.05l4.188-2.768l-0.01,19.538c0,1.04,0.182,3.312,1.64,4.942c1.052,1.177,2.558,1.773,4.469,1.773h8.038  c2.507,0,5.369,2.495,5.369,2.495s2.719-2.495,5.348-2.495h8.042c1.914,0,3.419-0.597,4.468-1.773  c1.458-1.63,1.641-3.902,1.641-4.942l-0.009-19.527l4.159,2.757v-5.05l4.599-1.512l-6.666-4.416c0,0,1.328-1.062,2.048-1.634  c0.76-0.597,0.904-0.729,0.904-1.801v-7.108c0,0,0.117-1.408-1.688-2.392l-3.009-1.469v-0.306c0,0,6.988-2.261,7.449-2.495  c0.88-0.449,1.672-0.406,1.672-2.734v-6.969c0,0-0.781-6.407-27.256-6.674v-1.47h-0.639v-2.336h2.199v0.561h2.172V9.271h-2.191  v0.527h-2.186V7.569h0.629v-2.12h-3.414v2.12h0.639v2.229h-2.184V9.271h-2.185v3.537h2.169v-0.561h2.197v2.336h-0.636V16.053z   M62.422,22.937c-0.183-0.024-0.69,0.218-0.507,0.312c0.178,0.092,0.598,0.704,0.507,0.674c-0.086-0.03-0.657,0.151-0.507,0.245  c0.15,0.088,0.691,0.768,0.569,0.733c-0.119-0.027-0.719,0.094-0.601,0.215c0.115,0.128,0.694,0.798,0.569,0.798  c-0.117,0-0.903,0-0.657,0.156c0.232,0.149,0.782,1.041,0.657,1.011c-0.117-0.034-0.965-0.151-0.687,0.089  c0.262,0.244,0.45,0.981,0.45,0.981c-6.782-5.172-26.95-4.849-27.27-4.842H34.94c-0.324-0.007-20.532-0.33-27.315,4.842  c0,0,0.182-0.737,0.456-0.981c0.272-0.24-0.57-0.123-0.696-0.089c-0.121,0.03,0.422-0.861,0.664-1.011  c0.243-0.156-0.538-0.156-0.664-0.156c-0.121,0,0.453-0.67,0.573-0.798c0.123-0.121-0.484-0.242-0.608-0.215  c-0.113,0.034,0.43-0.646,0.576-0.733c0.155-0.094-0.415-0.275-0.508-0.245c-0.09,0.03,0.329-0.582,0.508-0.674  c0.185-0.094-0.326-0.336-0.508-0.312c-0.181,0.035,0.207-0.516,0.362-0.58c0.146-0.063-0.43-0.366-0.479-0.428  c0,0,3.965-4.995,27.639-4.995c0,0,0,0,0.005,0c23.625,0,27.601,4.995,27.601,4.995c-0.062,0.062-0.631,0.364-0.48,0.428  C62.215,22.421,62.606,22.972,62.422,22.937z M39.905,12.259h-1.16v-0.432h-3.152v3.113h0.576v1.107  c-0.405-0.003-0.816-0.005-1.234-0.005h-0.01c-0.415,0-0.822,0.002-1.225,0.005V14.94h0.576v-3.113h-3.148v0.432h-1.161V9.856h1.248  v0.487h3.072V7.169H33.7V6.004h2.469v1.165H35.58v3.175h3.071V9.856h1.254V12.259z M44.324,42.492  c-0.895,0.472-3.279,0.717-3.279,0.717s-1.335,0.142-2.62,1.602c-0.911,1.036-2.174,1.797-3.484,1.776  c-1.281-0.011-2.613-0.775-3.491-1.776c-1.289-1.46-2.626-1.602-2.626-1.602s-2.388-0.245-3.275-0.717  c-1.024-0.543-1.856-1.17-2.455-2.289l7.837-3.112l-2.815,3.089l4.979-3.121l-1.536,5.182l2.827-4.778l0.541,6.603h0.02l0.545-6.603  l2.822,4.778l-1.541-5.182l4.987,3.121l-2.82-3.089l7.836,3.112C46.171,41.322,45.351,41.949,44.324,42.492z" id="path57" style="fill:#ffffff;fill-opacity:1"/></svg>
